<svg xmlns="http://www.w3.org/2000/svg" viewBox="0 0 1030 800" width="1030" height="800"><path fill="#FFF" d="M0 0h1030v800H0z"/><g transform="translate(0.0 281.0) rotate(0.0 247.5 259.5) scale(0.6319643750829852 0.6315459002449522)"><svg width="783.272" height="821.793" viewBox="0 0 783.272 821.793"><ellipse cx="208.169" cy="599.103" fill="#531CB3" rx="50.699" ry="281.317" transform="matrix(.7491 -.6625 .6625 .7491 -344.6608 288.2365)"/><path d="M386.225 814.493c-36.508.005-134.314-86.382-217.532-180.477-49.857-56.375-92.783-112.889-120.87-159.132C27.6 441.587 6.44 399.291 20.477 386.877c14.036-12.415 53.43 13.758 84.004 37.899 42.464 33.529 93.307 83.041 143.164 139.415s92.783 112.888 120.87 159.132c20.224 33.296 41.384 75.593 27.347 88.007-2.422 2.141-5.669 3.162-9.637 3.163zM30.134 387.677c-2.986 0-5.342.722-7.008 2.196-9.066 8.018 1.444 39.021 28.116 82.935 27.967 46.046 70.743 102.357 120.447 158.558s100.364 105.539 142.646 138.925c40.324 31.84 69.81 46.06 78.875 38.042 9.066-8.018-1.444-39.021-28.116-82.934-27.968-46.047-70.743-102.357-120.447-158.558-49.704-56.202-100.364-105.54-142.646-138.926-32.912-25.987-58.605-40.238-71.867-40.238z" fill="#531CB3"/><path d="M345.787 326.597c4.98-19.922 18.677-118.285 19.299-129.491l-72.839-36.731c-5.603 38.598-17.276 84.356-44.825 130.44z" fill="#E2D8F4"/><path d="M345.787 328.597c-.231 0-.462-.04-.684-.121l-98.364-35.782a2 2 0 0 1-1.034-2.905c22.871-38.256 37.447-80.682 44.563-129.7a2.003 2.003 0 0 1 1.056-1.487 2.002 2.002 0 0 1 1.824-.011l72.838 36.73a2 2 0 0 1 1.097 1.896c-.62 11.15-14.255 109.463-19.356 129.865a1.997 1.997 0 0 1-1.94 1.515zm-95.414-38.837 93.982 34.188c5.235-23.46 17.32-110.328 18.638-125.657l-69.174-34.882c-7.2 47.512-21.431 88.896-43.446 126.351z" fill="#531CB3"/><path d="M339.794 45.204c29.923 9.171 37.411 34.77 56.255 54.225 14.182 14.642 28.084 24.667 32.173 29.161 6.229 6.845-13.332 11.242-15.2 13.11s20.343 47.314-3.813 66.415c-25.447 20.12-69.838 10.876-102.021-9.14-51.049-31.75-59.595-68.354-59.765-98.986-.307-55.408 56.638-65.738 92.371-54.785z" fill="#E2D8F4"/><path d="M287.449 192.279c-33.69-5.432-67.785-40.165-71.585-92.85-3.789-52.547 27.284-64.392 31.559-49.653 14.673-5.034 44.825-72.487 66.442-38.002 21.789 34.759 1.44 76.129-20.238 90.549s16.076 93.544-6.178 89.956z" fill="#531CB3"/><path d="M288.853 194.398c-.549 0-1.123-.048-1.722-.145-33.401-5.385-69.292-39.636-73.261-94.68-2.78-38.546 12.624-55.475 23.656-57.45 4.805-.858 8.881 1.036 10.937 4.905 4.057-2.62 9.585-9.656 15.396-17.05C275.14 15.619 287.908-.66 300.681.02c5.612.298 10.617 3.895 14.878 10.691 10.027 15.997 12.299 35.37 6.398 54.552-4.919 15.989-15.351 30.827-27.224 38.724-10.067 6.697-5.402 31.606-1.654 51.621 3.303 17.635 5.911 31.564.835 36.771-1.309 1.343-3.007 2.019-5.061 2.019zM239.797 45.915a8.86 8.86 0 0 0-1.567.146c-9.241 1.654-22.942 17.566-20.371 53.224 3.82 52.972 38.06 85.885 69.908 91.019 2.001.324 2.832-.255 3.283-.718 3.626-3.719.815-18.727-1.903-33.241-4.171-22.277-8.9-47.526 3.371-55.687 22.015-14.643 40.141-55.136 19.652-87.821-3.578-5.708-7.406-8.594-11.701-8.822-10.705-.584-23.314 15.514-33.467 28.435-7.344 9.347-13.688 17.419-18.931 19.218a1.999 1.999 0 0 1-2.57-1.335c-.83-2.863-2.871-4.418-5.704-4.418z" fill="#531CB3"/><path d="M361.825 301.064c37.501 8.724 125.744-16.827 190.611-60.475 51.519-34.666 82.497-91.438 90.608-117.853 8.408-27.38 12.024-43.668 19.77-59.296 4.5-9.08 12.732-1.154 6.271 13.341-4.653 10.439-6.063 21.463 4.338 19.148 17.34-3.859 34.141-36.21 42.071-44.565 3.439-3.623 8.18-.374 8.472 3.01 3.892-1.383 7.665 2.169 4.862 7.792 5.307 0 5.164 5.39 1.641 11.643 7.896 1.891-3.21 28.795-19.346 43.931-11.414 10.706-34.576 31.11-36.353 49.087-6.517 65.93-14.619 130.48-71.368 201.528-49.035 61.39-129.368 136.913-260.727 131.933z" fill="#E2D8F4"/><path d="M354.773 502.52c-4.041 0-8.092-.077-12.174-.232a1.996 1.996 0 0 1-1.915-2.19l19.151-199.225a2 2 0 0 1 2.444-1.757c18.111 4.212 50.476.047 86.575-11.144 39.281-12.177 76.973-30.521 106.132-51.65 48.499-35.144 76.718-83.469 86.147-114.173 2.217-7.219 4.129-13.764 5.816-19.54 4.816-16.487 8.296-28.399 14.074-40.058 2.524-5.092 6.148-5.57 8.485-4.43 4.28 2.087 5.967 9.96 1.381 19.524-3.159 6.589-4.141 13.076-2.334 15.423.78 1.014 2.292 1.315 4.495.895 13.329-2.539 24.531-19.772 32.71-32.355 3.202-4.926 5.967-9.18 8.284-11.621 1.946-2.051 4.509-2.72 7.03-1.838 1.915.67 3.496 2.157 4.311 3.927 1.864-.08 3.604.624 4.835 2.014 1.482 1.674 1.924 4.011 1.305 6.534a5.143 5.143 0 0 1 2.637 2.227c1.382 2.365 1.009 5.938-1.033 10.185.717.677 1.243 1.594 1.54 2.711 2.339 8.82-9.475 31.551-22.982 44.221-.766.719-1.582 1.478-2.438 2.274-11.559 10.757-30.906 28.761-32.489 44.782-5.959 60.284-12.713 128.61-71.796 202.58-31.862 39.891-64.578 69.761-100.015 91.316-45.42 27.628-95.893 41.6-150.176 41.6zm-9.904-4.156c57.329 1.791 110.468-11.948 158.001-40.861 35.03-21.308 67.403-50.876 98.969-90.395 58.344-73.044 65.036-140.746 70.94-200.477 1.732-17.525 21.771-36.174 33.745-47.316.851-.792 1.663-1.547 2.426-2.263 6.184-5.8 12.265-14.045 16.685-22.62 3.951-7.666 5.979-14.597 5.167-17.659-.234-.883-.601-.971-.798-1.019a1.998 1.998 0 0 1-1.276-2.927c2.249-3.991 2.615-6.873 1.981-7.958-.102-.174-.411-.703-1.879-.703a2 2 0 0 1-1.79-2.893c.947-1.899 1.017-3.593.187-4.531-.592-.668-1.559-.85-2.589-.483a2.003 2.003 0 0 1-2.662-1.713c-.092-1.066-1.068-2.218-2.221-2.621-1.014-.354-1.958-.081-2.808.816-2.065 2.175-4.737 6.287-7.832 11.047-8.572 13.187-20.311 31.247-35.316 34.105-4.739.902-7.192-.799-8.413-2.385-3.405-4.425-1.252-13.022 1.898-19.593 3.734-7.787 2.316-13.3.473-14.199-.895-.438-2.158.613-3.148 2.611-5.622 11.342-9.06 23.112-13.819 39.403-1.69 5.788-3.606 12.347-5.831 19.592-9.611 31.295-38.326 80.515-87.625 116.238-55.746 40.396-133.941 65.166-178.37 65.168-5.723 0-10.877-.41-15.36-1.251z" fill="#531CB3"/><path d="M687.878 101.429a2 2 0 0 1-1.006-3.73c8.373-4.863 17.051-18.574 24.024-29.59 6.394-10.101 9.601-14.987 12.621-15.684a2 2 0 1 1 .899 3.897c-1.68.559-6.371 7.97-10.141 13.926-7.206 11.385-16.175 25.554-25.395 30.909a1.973 1.973 0 0 1-1.002.272zm3.929 6.669a2 2 0 0 1-.686-3.879c8.821-3.224 18.004-17.878 24.71-28.579 6.014-9.596 9.302-14.64 12.527-15.419a2 2 0 0 1 .939 3.889c-1.792.433-6.386 7.764-10.078 13.654-7.404 11.814-16.618 26.517-26.727 30.211a1.956 1.956 0 0 1-.685.123z" fill="#531CB3"/><path d="M695.026 116.279a2 2 0 0 1-.776-3.845c11.334-4.763 20.507-20.055 26.577-30.174 4.701-7.836 6.447-10.557 8.812-10.749.892-.075 1.752.293 2.356 1.005a2 2 0 0 1-2.096 3.21c-1.208 1.199-3.55 5.104-5.642 8.591-6.338 10.566-15.917 26.534-28.458 31.804a1.959 1.959 0 0 1-.773.158z" fill="#531CB3"/><path d="M588.353 403.347c-9.944-59.002-53.504-117.371-84.547-134.735-50.721 24.72-112.788 39.244-141.981 32.453L342.674 500.29c114.635 4.346 201.766-39.197 245.679-96.943z" fill="#fff"/><g fill="#531CB3"><path d="M358.65 502.595c-5.31 0-10.656-.102-16.051-.307a1.996 1.996 0 0 1-1.915-2.19l19.151-199.225a2 2 0 0 1 2.444-1.757c28.231 6.566 90.011-7.622 140.652-32.302a2 2 0 0 1 1.853.052c16.047 8.976 35.066 28.562 50.875 52.393 17.766 26.78 30.078 56.525 34.667 83.755a2 2 0 0 1-.38 1.543c-22.996 30.241-56.584 55.272-97.132 72.389-40.371 17.04-85.439 25.649-134.164 25.649zm-13.781-4.229c53.505 1.764 102.738-6.68 146.388-25.105 39.596-16.715 72.418-41.059 94.977-70.435-7.868-44.845-43.363-109.385-82.5-131.955-43.063 20.828-92.326 33.875-124.635 33.877-5.748 0-10.952-.412-15.497-1.267z"/><path d="M567.828 428.273a2.001 2.001 0 0 1-1.993-2.203c3.864-37.886-42.244-115.191-86.553-145.117a2 2 0 0 1 2.239-3.315c21.016 14.194 44.282 40.516 62.235 70.41 18.501 30.807 27.999 59.392 26.058 78.428a1.998 1.998 0 0 1-1.986 1.797zM372.336 221.442c-14.446 0-30.62-3.619-47.31-10.871a2 2 0 0 1 1.593-3.669c25.238 10.967 59.862 16.632 81.35-.357 17.731-14.02 8.586-44.389 4.681-57.356-1.814-6.024-2.302-7.644-1.042-8.903.747-.748 2.134-1.31 4.951-2.411 3.343-1.307 10.301-4.026 10.857-6.403.037-.157.148-.633-.673-1.535-1.388-1.525-3.333-2.95-6.024-4.922-4.731-3.466-11.21-8.214-20.228-17.524-5.922-6.115-10.811-12.942-15.985-20.17-11.161-15.589-22.703-31.709-45.415-40.244-21.953-8.249-49.72-5.347-67.527 7.058-14.594 10.167-22.25 26.019-22.14 45.843a2 2 0 0 1-1.989 2.011h-.011a2 2 0 0 1-2-1.989c-.118-21.2 8.131-38.195 23.854-49.148 18.822-13.112 48.109-16.204 71.22-7.52 23.85 8.962 35.751 25.584 47.26 41.66 5.086 7.104 9.89 13.814 15.606 19.715 8.782 9.067 15.104 13.699 19.719 17.081 2.771 2.031 4.96 3.634 6.618 5.457 1.849 2.032 1.896 3.916 1.609 5.139-.958 4.092-6.588 6.595-13.295 9.217-1.035.404-2.251.88-3.005 1.229.239 1.118.862 3.189 1.47 5.206 4.14 13.748 13.835 45.941-6.03 61.648-9.908 7.832-23.074 11.757-38.114 11.758z"/><path d="M366.848 15.26c5.351 13.15-15.518 54.131-41.024 54.131s-46.183-11.509-46.183-25.706 21.682-18.615 46.183-25.706c21.753-6.294 33.282-21.742 41.024-2.719z"/><path d="M325.824 71.391c-27.019 0-48.183-12.17-48.183-27.706 0-14.209 18.527-19.421 39.98-25.455 2.502-.704 5.059-1.423 7.646-2.172 6.404-1.853 11.91-4.525 16.768-6.882 7.419-3.6 13.277-6.441 18.515-4.434 3.376 1.295 5.966 4.398 8.15 9.765 2.983 7.331-1.116 21.963-9.747 34.793-9.444 14.04-21.519 22.091-33.129 22.091zm31.018-63.306c-3.397 0-7.781 2.127-13.061 4.689-5.001 2.427-10.67 5.178-17.402 7.126-2.598.751-5.164 1.473-7.676 2.18-20.708 5.825-37.063 10.425-37.063 21.604 0 13.072 19.82 23.706 44.183 23.706 10.257 0 21.122-7.408 29.811-20.324 7.686-11.425 11.797-25.065 9.361-31.053-1.714-4.213-3.637-6.678-5.878-7.538-.7-.267-1.459-.39-2.275-.39z"/><ellipse cx="292.247" cy="96.486" rx="44.59" ry="35.719" transform="matrix(.3256 -.9455 .9455 .3256 105.8757 341.4021)"/><path d="M287.2 142.223c-3.407 0-6.808-.544-10.12-1.685-19.666-6.771-28.86-32.041-20.497-56.332s31.167-38.544 50.832-31.773c19.666 6.771 28.86 32.042 20.497 56.332l-1.891-.651 1.891.651c-6.955 20.199-23.895 33.458-40.712 33.458zm10.05-87.481c-15.134 0-30.499 12.221-36.884 30.767-7.646 22.206.437 45.195 18.017 51.248a27.115 27.115 0 0 0 8.863 1.474c15.134.001 30.499-12.222 36.884-30.767 7.646-22.205-.437-45.194-18.017-51.248a27.15 27.15 0 0 0-8.863-1.474zm45.424 49.581a2 2 0 0 1-1.875-2.695c3.4-9.183 10.712-11.825 11.022-11.933a2 2 0 0 1 1.318 3.776c-.228.083-5.868 2.198-8.588 9.545a2.003 2.003 0 0 1-1.877 1.307z"/></g><ellipse cx="366.848" cy="124.173" fill="#fff" rx="20.45" ry="10.317" transform="matrix(.9108 -.4128 .4128 .9108 -18.5457 162.4881)"/><path d="M357.581 138.804c-.329 0-.655-.007-.977-.021-5.116-.213-8.74-2.112-10.205-5.345-1.465-3.232-.503-7.209 2.708-11.196 2.907-3.608 7.401-6.907 12.656-9.288s10.694-3.593 15.327-3.393c5.116.213 8.74 2.112 10.205 5.345 1.465 3.232.503 7.209-2.708 11.196-2.907 3.608-7.401 6.907-12.656 9.288-4.889 2.217-9.942 3.414-14.35 3.414zm18.518-25.263c-3.839 0-8.306 1.072-12.684 3.057-4.696 2.128-8.67 5.023-11.192 8.154-2.184 2.711-2.979 5.275-2.18 7.036.798 1.761 3.25 2.854 6.728 3 4.012.161 8.813-.912 13.509-3.04s8.67-5.023 11.192-8.154c2.184-2.711 2.979-5.275 2.18-7.036-.798-1.761-3.25-2.854-6.728-3a20.334 20.334 0 0 0-.825-.017z" fill="#531CB3"/><ellipse cx="373.476" cy="118.106" fill="#531CB3" rx="7.329" ry="7.69"/><path d="M363.374 168.625c7.005.058 20.544-.467 26.925-3.735 3.033 2.628 5.759 17.276-6.848 18.054-12.606.777-19.061-9.031-20.077-14.319" fill="#fff"/><path d="M382.006 184.988c-13.2 0-19.565-10.615-20.597-15.987-.113-.588.044-1.197.428-1.657s.977-.704 1.553-.72c9.108.072 20.712-.808 25.997-3.515a2.001 2.001 0 0 1 2.221.269c2.556 2.214 4.248 9.009 2.518 14.127-1.511 4.468-5.258 7.108-10.552 7.435-.532.032-1.055.048-1.568.048zm-15.896-14.372c2.015 4.581 7.551 10.93 17.218 10.331 3.667-.227 6.025-1.816 7.009-4.724 1.092-3.228.236-7.014-.683-8.853-6.647 2.642-17.63 3.167-23.544 3.246z" fill="#531CB3"/><ellipse cx="288.349" cy="151.452" fill="#E2D8F4" rx="13.818" ry="19.878" transform="matrix(.3896 -.921 .921 .3896 36.525 358.0127)"/><path d="M276.734 150.263a2.001 2.001 0 0 1-1.751-2.963c1.494-2.721 3.981-4.452 7.195-5.006 5.024-.868 10.65 1.292 12.778 3.184a2 2 0 0 1-2.658 2.99c-1.233-1.097-5.684-2.876-9.439-2.232-2.028.35-3.457 1.328-4.369 2.99a2.003 2.003 0 0 1-1.756 1.037z" fill="#531CB3"/><path d="M290.375 159.074a2 2 0 0 1-1.815-1.158l-5.849-12.59a2.002 2.002 0 0 1 .971-2.657 2.002 2.002 0 0 1 2.657.971l5.849 12.59a2.002 2.002 0 0 1-1.813 2.844z" fill="#531CB3"/><path d="M600.259 299.758c-49.828 36.236-112.656 54.266-176.653 26.839-77.054-33.023-131.358-56.49-176.183-35.782 0 0-96.964 154.195-185.032 200.327-.493.258-.827.749-1.018 1.448 26.738 40.897 64.371 89.842 108.819 140.101 37.489 42.389 74.643 79.851 107.753 109.467 2.461-.1 4.877-.392 7.237-.91 84.979-18.677 186.473-80.716 192.041-193.232 36.337-8.228 72.726-22.361 105.646-45.051 38.237-26.355 66.359-57.266 87.162-89.255-7.467-51.957-41.995-94.244-69.772-113.952z" fill="#fff"/><path d="m774.364 110.421-.014.022c.086-1.315-1.036-2.06-4.193-1.787-22.16 1.921-49.094 44.496-67.77 43.251-18.677-1.245-34.705-44.457-47.623-36.675-7.691 4.633 11.708 17.184 14.198 37.728s4.84 41.767-3.027 61.417c-14.923 37.271-34.072 62.398-65.677 85.382 27.777 19.708 62.305 61.995 69.771 113.951 49.958-76.822 45.384-162.931 49.28-204.097 2.112-22.312 11.997-28.453 31.911-45.496 8.895-7.612 33.04-30.362 25.926-41.379 1.254-1.715 2.255-3.209 2.912-4.379 4.682-8.335-5.694-7.938-5.694-7.938z" fill="#E2D8F4"/><path d="M744.778 159.09a2 2 0 0 1-1.213-3.591c10.587-8.065 30.34-30.267 34.75-38.12.906-1.613 1.181-2.87.774-3.54-.64-1.052-3.144-1.461-4.653-1.42-1.109.059-2.028-.826-2.067-1.927a1.998 1.998 0 0 1 1.919-2.07c.619-.024 6.098-.131 8.212 3.328 1.232 2.016.998 4.569-.698 7.587-4.673 8.322-24.696 30.874-35.813 39.343-.362.276-.788.41-1.211.41z" fill="#531CB3"/><path d="M719.31 209.611c2.112-22.312 11.997-28.453 31.911-45.496.484-.415 1.022-.882 1.589-1.382-33.261 5.933-49.278 32.568-51.216 55.503-4.297 50.859-3.023 127.454-10.463 157.888 31.251-65.022 24.914-132.009 28.179-166.513z" fill="#fff"/><path d="M670.035 415.713a2 2 0 0 1-1.674-3.09c41.471-63.769 45.063-133.393 47.441-179.464.469-9.09.874-16.94 1.517-23.736 1.984-20.964 10.908-28.495 27.107-42.166 1.739-1.468 3.57-3.013 5.495-4.66 16.217-13.878 30.405-31.25 25.546-38.775a2 2 0 1 1 3.36-2.17c8.286 12.832-18.04 36.91-26.306 43.984-1.932 1.653-3.77 3.205-5.516 4.678-16.393 13.834-23.875 20.148-25.705 39.486-.635 6.711-1.038 14.521-1.505 23.565-2.4 46.499-6.026 116.768-48.083 181.438a1.99 1.99 0 0 1-1.677.91zm-69.771-113.95a2.001 2.001 0 0 1-1.178-3.618c29.744-21.631 51.609-50.059 64.986-84.493 7.213-18.566 5.583-38.362 2.906-60.452-1.2-9.904-6.48-17.805-10.723-24.154-3.417-5.113-5.887-8.808-5.154-12.087.318-1.422 1.204-2.58 2.633-3.441 8.086-4.872 16.163 5.268 24.713 16.003 7.405 9.298 15.799 19.837 24.074 20.389 8.498.562 19.989-9.853 31.107-19.928 12.098-10.964 24.607-22.301 36.357-23.319 1.195-.103 4.824-.417 6.043 2.117 1.468 3.051-1.83 6.85-7.435 12.743-1.086 1.142-2.112 2.221-2.899 3.127-3.64 4.191-10.505 11.208-15.623 16.355a1089.357 1089.357 0 0 1-7.306 7.278c-1.398 1.379-2.287 2.255-2.902 2.801a2.101 2.101 0 0 1-.115.138l-.021-.019c-.958.826-1.213.774-1.863.644a2.001 2.001 0 0 1-1.505-1.338 2.023 2.023 0 0 1 .635-2.174c1.28-1.22 19.014-18.63 25.679-26.307.847-.975 1.903-2.085 3.021-3.261 2.003-2.106 6.015-6.323 6.598-8.098-.327-.059-.931-.11-1.962-.021-10.408.902-22.41 11.779-34.017 22.298-12.276 11.125-23.873 21.631-34.059 20.956-10.038-.669-18.629-11.457-26.937-21.888-7.425-9.324-14.438-18.131-19.521-15.069-.688.414-.762.745-.793.886-.359 1.608 2.15 5.362 4.576 8.993 4.243 6.348 10.053 15.043 11.368 25.895 2.744 22.635 4.4 42.952-3.148 62.382-13.66 35.162-35.987 64.19-66.362 86.28a1.982 1.982 0 0 1-1.173.382z" fill="#531CB3"/><path d="M552.549 521.059c-10.12-2.832-26.866-2.736-56.249 1.328-71.242 9.853-118.616-16.482-131.979-27.85-13.362-11.368-30.961 5.305-15.719 15.916 15.241 10.611 18.878 16.607 13.722 25.911-6.64 11.983-58.544 6.568-95.934-21.726-20.023-15.153-39.694 8.688-18.968 19.27 76.063 38.834 222.084 34.287 305.127-12.849zM62.391 491.142c-.493.258-.824.754-1.015 1.453 23.197 35.48 54.598 77.019 91.533 120.218 8.138-37.417-32.918-74.985-28.75-112.224 5.305-47.396 50.779-83.72 82.61-116.97 22.79-23.805 25.851-49.155 26.525-71.485C203.251 356.08 130.19 455.627 62.391 491.142zm253.551 211.876c-37.632-10.699-63.929-9.647-83.035-3.563 15.572 15.551 30.684 29.863 45.037 42.701 2.461-.1 4.877-.391 7.237-.909 44.972-9.884 94.565-31.916 132.122-67.143-28.578-13.556-60.895 40.419-101.361 28.914zM590.6 348.546c7.369-9.642 3.254-25.053-13.471-33.881-38.595 21.808-83.049 32-128.908 20.313 27.02 21.311 36.846 27.661 53.117 32.627 17.004 5.19 16.167-18.189 32.841-18.947s45.416 14.288 56.421-.112z" fill="#E2D8F4"/><path d="M650.988 441.982c-.028 0-.057 0-.085-.002a2 2 0 0 1-1.914-2.082c.92-21.919-23.496-92.353-72.927-123.542a2 2 0 0 1 2.135-3.383c28.227 17.81 46.5 46.166 56.859 66.817 9.093 18.127 18.583 44.722 17.929 60.276a2 2 0 0 1-1.997 1.916z" fill="#531CB3"/><path d="M277.944 744.158c-.491 0-.966-.181-1.333-.509-34.317-30.696-71.635-68.607-107.917-109.633-42.655-48.23-81.363-98.067-108.995-140.332a2 2 0 0 1-.255-1.622c.431-1.576 1.335-2.333 2.019-2.692 86.578-45.351 183.301-198.083 184.268-199.62.206-.328.503-.589.854-.751 45.418-20.983 100.483 2.619 176.698 35.282l1.112.477c29.792 12.769 60.909 16.243 92.484 10.327 28.069-5.259 55.727-17.689 82.206-36.945a2 2 0 0 1 2.333-.014c15.558 11.038 30.832 27.162 43.008 45.403 14.624 21.906 24.162 46.075 27.585 69.895.069.48-.039.969-.303 1.375-22.962 35.31-52.47 65.526-87.704 89.811-30.13 20.768-65.403 35.91-104.865 45.018-2.914 50.676-26.005 96.185-66.845 131.702-33.766 29.364-78.756 51.337-126.683 61.87a43.753 43.753 0 0 1-7.667.958zM63.807 492.657c27.477 41.858 65.741 91.06 107.882 138.709 35.965 40.667 72.942 78.257 106.977 108.753a39.205 39.205 0 0 0 6.086-.825c135.067-29.685 187.021-121.647 190.472-191.377a2 2 0 0 1 1.556-1.852c39.558-8.957 74.87-24.012 104.954-44.747 34.591-23.842 63.592-53.469 86.208-88.067-7.166-48.033-38.882-90.086-67.679-111.027-26.608 19.126-54.406 31.502-82.649 36.794-32.369 6.063-64.262 2.503-94.796-10.582l-1.112-.477c-74.961-32.127-129.204-55.376-172.912-35.572-2.998 4.711-26.549 41.368-59.296 82.537-32.167 40.44-80.035 93.618-125.691 117.733z" fill="#531CB3"/><path d="M477.226 548.026c-106.631 24.27-208.746-2.859-229.803-14.118 24.02 17.109 53.094 44.361 117.663 36.108 82.799-10.583 58.944 10.353 74.387 18.443 9.805 5.135 34.738-1.064 37.753-40.433z" fill="#531CB3"/><path d="M446.444 592.013c-2.895 0-5.616-.588-7.898-1.784-4.837-2.534-6.375-6.262-7.73-9.552-3.13-7.591-6.677-16.195-65.476-8.679-59.278 7.579-88.597-14.042-112.153-31.414-2.404-1.772-4.674-3.447-6.924-5.049a2 2 0 0 1 2.103-3.393c19.07 10.197 120.468 38.502 228.417 13.932a2.002 2.002 0 0 1 2.438 2.103c-2.03 26.507-13.691 36.758-20.462 40.51-3.97 2.2-8.309 3.326-12.315 3.326zm-44.204-26.897c26.488 0 29.416 7.106 32.273 14.037 1.255 3.044 2.339 5.674 5.888 7.533 3.509 1.837 9.946 2.088 16.418-1.497 5.84-3.235 15.75-11.988 18.166-34.613-56.894 12.5-110.135 10.03-144.998 5.698-29.657-3.686-53.373-9.543-68.519-14.581 22.07 15.954 50.51 33.091 103.364 26.337 16.015-2.046 28.151-2.914 37.408-2.914zM289.885 782.681c-.417 0-.836-.129-1.196-.398-44.91-33.567-93.307-74.977-139.96-119.753C90.78 606.911 39.49 550.152.404 498.387a1.999 1.999 0 1 1 3.192-2.41C42.557 547.575 93.7 604.17 151.499 659.644c46.537 44.665 94.805 85.964 139.585 119.435a2 2 0 0 1-1.199 3.602zm8.445 39.112c-.356 0-.717-.095-1.042-.295-45.988-28.169-96.647-64.219-146.501-104.251a2 2 0 0 1 2.505-3.119c49.724 39.929 100.239 75.877 146.084 103.959a2 2 0 0 1-1.046 3.706z" fill="#531CB3"/></svg></g><g transform="translate(613.0 0.0) rotate(0.0 208.5 259.5) scale(0.4856771819076514 0.4857658440158141)"><svg width="858.595" height="1068.416" viewBox="0 0 858.595 1068.416"><path d="M493.389 38.846a2 2 0 0 1-1.415-3.413c12.297-12.313 34.721-23.117 61.521-29.641 27.181-6.616 54.291-7.607 74.381-2.721a2.001 2.001 0 0 1-.945 3.887c-40.195-9.779-106.878 6.019-132.127 31.302a1.994 1.994 0 0 1-1.415.587z" fill="#531CB3"/><path d="M182.268 261.218c-22.886-8.751-27.52-60.479 5.914-93.635 28.277-28.042 106.451-40.92 135.756-12.625s81.824 1.304 106.012-31.712c51.916-70.863 134.033-113.182 248.17-93.782 116.675 19.832 180.884 104.013 171.132 162.203-7.744 46.204-43.303 46.452-48.605 87.326-2.575 19.854 21.621 74.116-26.991 122.779-40.408 40.45-124.335 18.805-166.272-12.145-39.98-29.505-85.389-53.792-121.339-20.95-41.173 37.614-127.244 29.248-192.044 4.911-75.791-28.465-46.828-58.974-61.228-92.827s-31.512-12.282-50.503-19.544z" fill="#531CB3"/><path d="M711.282 425.882c-6.563 0-13.395-.472-20.458-1.425-29.909-4.04-62.337-16.769-84.629-33.22-15.494-11.435-38.729-27.352-61.517-33.534-22.652-6.144-41.389-2.072-57.287 12.452-19.294 17.626-49.91 26.708-88.535 26.21-33.281-.413-70.77-7.837-105.561-20.903-54.907-20.622-56.076-42.562-57.313-65.791-.486-9.132-.99-18.576-5.053-28.126-8.813-20.718-17.884-19.374-29.365-17.676-6.07.899-12.952 1.917-20.011-.783-8.796-3.363-15.396-12.664-18.108-25.518-3.887-18.414-.109-48.164 23.327-71.405 14.012-13.896 40.322-24.626 68.664-28.005 30.536-3.642 56.01 1.958 69.89 15.361 8.844 8.54 20.27 12.275 33.96 11.105 23.788-2.035 52.183-19.537 69.05-42.561 27.533-37.582 61.718-64.971 101.604-81.407 43.787-18.043 93.754-22.473 148.515-13.165 53.733 9.133 101.354 33.037 134.088 67.308 29.283 30.658 43.744 66.993 38.682 97.198-4.048 24.15-15.385 35.94-26.349 47.341-10.146 10.551-19.729 20.518-22.246 39.912-.572 4.413.311 11.032 1.332 18.696 3.357 25.183 8.976 67.332-28.892 105.239-14.875 14.89-37.089 22.696-63.787 22.696zm-185.965-74.863c28.293 0 58.09 18.429 83.253 36.999 21.783 16.077 53.506 28.52 82.789 32.475 34.527 4.667 63.253-2.487 80.88-20.134 36.472-36.51 31.227-75.851 27.757-101.884-1.103-8.271-1.974-14.805-1.334-19.739 2.686-20.702 12.714-31.13 23.33-42.17 10.542-10.963 21.443-22.299 25.286-45.229 4.855-28.967-9.212-64.023-37.629-93.773-32.145-33.653-78.975-57.137-131.865-66.127C546.881 9.19 471.639 69.727 431.562 124.43c-17.5 23.887-47.081 42.056-71.936 44.182-14.684 1.254-27.504-2.967-37.079-12.213-12.822-12.379-37.734-17.711-66.638-14.267-27.499 3.278-52.912 13.575-66.321 26.873-22.294 22.11-25.909 50.309-22.229 67.739 2.427 11.499 8.121 19.739 15.622 22.607 6.085 2.326 12.14 1.43 17.997.563 11.606-1.719 23.608-3.495 33.633 20.067 4.338 10.199 4.86 20 5.365 29.479 1.217 22.835 2.267 42.556 54.726 62.258 34.367 12.907 71.375 20.24 104.204 20.648 37.546.456 67.257-8.235 85.788-25.164 12.647-11.555 26.447-16.182 40.623-16.182z" fill="#531CB3"/><path d="M545.124 445.156c-75.299-31.636-154.162-36.705-200.942-21.657 0 0-37.304-49.91-41.851-89.558-5.62-48.998-13.045-96.05-49.994-104.798-46.672-11.051-80.285 34.109-88.031 80.801-2.117 12.76-13.697 17.468-14.08 21.222-.62 6.063 3.851 8.337 10.754 10.986 1.025 36.783 19.101 61.589 49.56 66.947 8.851 1.557 17.949.967 26.801-1.449 0 0 13.074 38.08 14.883 58.544 1.803 20.393-3.325 34.109-9.551 57.419-2.614 9.785 85.664 41.809 174.772 21.655 89.109-20.154 133.188-97.796 127.679-100.111z" fill="#E2D8F4"/><path d="M356.703 553.844c-58.128 0-105.466-16.809-114.129-25.813-1.638-1.702-2.255-3.362-1.835-4.935.942-3.526 1.858-6.833 2.73-9.978 4.795-17.299 8.26-29.797 6.762-46.749-1.549-17.509-11.632-48.625-14.193-56.317-8.777 2.147-17.462 2.49-25.846 1.016-15.421-2.712-28.243-10.483-37.081-22.472-8.519-11.557-13.378-27.113-14.087-45.056-5.462-2.136-11.56-5.033-10.789-12.578.214-2.099 1.979-3.738 4.421-6.008 3.559-3.307 8.432-7.836 9.676-15.337 5.224-31.493 21.574-59.773 42.67-73.805 14.459-9.617 30.985-12.595 47.795-8.615 17.428 4.126 29.908 16.734 38.155 38.544 7.376 19.506 10.646 44.275 13.365 67.972 4.057 35.375 35.118 79.799 40.633 87.446 23.684-7.319 55.278-9.569 89.198-6.329 37.22 3.555 75.861 13.404 111.749 28.482.569.239 1.87 1.052 1.662 3.427-.577 6.571-12.95 27.319-33.812 47.646-18.993 18.506-51.041 42.695-95.862 52.832-20.904 4.728-41.654 6.626-61.183 6.626zm-112.097-29.72c.025 0 .279.965 2.842 2.802 8.201 5.882 31.194 14.41 62.297 19.233 25.629 3.974 65.04 6.707 107.258-2.843 44.798-10.132 76.624-34.552 95.436-53.254 21.341-21.217 30.556-39.346 31.123-43.392-68.99-28.797-148.769-37.351-198.769-21.268a1.997 1.997 0 0 1-2.214-.707c-1.537-2.056-37.68-50.799-42.236-90.527-5.909-51.518-13.635-94.833-48.468-103.08-15.93-3.771-30.953-1.062-44.657 8.053-20.204 13.438-35.891 40.694-40.94 71.129-1.467 8.848-7.143 14.123-10.897 17.613-1.3 1.208-3.08 2.863-3.166 3.486-.439 4.309 2.102 6.082 9.481 8.914a2 2 0 0 1 1.282 1.812c1.008 36.151 18.47 59.855 47.908 65.033 8.38 1.475 17.103 1 25.928-1.409a2 2 0 0 1 2.418 1.28c.537 1.564 13.174 38.546 14.984 59.017 1.562 17.674-1.984 30.466-6.892 48.17-.868 3.132-1.781 6.426-2.719 9.938zm299.742-77.125h.01zm-.003 0h.003z" fill="#531CB3"/><path d="m344.181 423.499-7.15 3.221c-1.205 9.655 20.417-.24 53.594-2.823 40.615-3.163 101.368 11.413 113.829 6.882l.161-.061c-61.953-18.352-122.014-19.577-160.434-7.219z" fill="#fff"/><path d="M191.488 249.056c5.508-1.516 26.716-7.2 48.063 5.937 25.612 15.761 23.283 46.484 31.367 48s10.611-27.537 38.293-14.036c3.049 1.487 29.086 16.146 31.772 11.593 9.567-16.215-1.291-67.881-11.87-78.4-15.752-15.663-94.357-40.421-112.654-26.274-18.298 14.147-38.612 37.516-24.97 53.179z" fill="#531CB3"/><path d="M271.56 305.055c-.327 0-.663-.031-1.01-.096-4.223-.792-5.94-6.008-8.318-13.228-3.561-10.814-8.438-25.625-23.729-35.035-9.479-5.833-25.239-11.56-46.483-5.711a2 2 0 0 1-2.039-.615c-3.783-4.344-5.413-9.48-4.845-15.266 1.732-17.612 23.476-35.688 30.099-40.809 12.273-9.488 45.363-2.037 59.021 1.607 25.185 6.72 48.322 16.931 56.267 24.83 10.943 10.881 22.341 63.618 12.183 80.834-2.418 4.096-11.155 1.466-32.244-9.701-1.01-.535-1.749-.927-2.127-1.112-17.004-8.292-23.368.473-28.48 7.519-2.523 3.478-4.92 6.781-8.294 6.781zm-62.112-60.525c13.499 0 23.991 4.353 31.151 8.76 16.537 10.176 21.891 26.433 25.433 37.19 1.726 5.241 3.355 10.191 5.255 10.547 1.429.273 3.327-2.34 5.33-5.103 5.354-7.38 13.445-18.531 33.472-8.765.398.194 1.18.607 2.245 1.171 20.853 11.042 25.827 11.476 27.016 11.051 3.896-6.817 4.391-22.039 1.283-39.823-2.88-16.485-8.197-31.285-12.93-35.99-7.38-7.338-30.291-17.348-54.478-23.802-26.841-7.163-48.122-8.046-55.543-2.309-6.303 4.873-26.989 22.018-28.564 38.036-.423 4.294.594 8.001 3.104 11.296 6.19-1.594 11.938-2.262 17.227-2.262z" fill="#531CB3"/><path d="M16.138 376.24c4.473-8.622 58.288-5.025 69.796-.915 15.747 5.624 45.213 28.821 56.847 44.913 13.107 18.129 28.422 40.104 36.39 76.255 6.759 30.664 30.378 149.823 124.973 142.098 39.222-3.203 14.57 193.577-22.657 200.905-44.549 8.769-133.103 8.928-172.042-77.724-36.176-80.502.232-251.904.81-281.099S97.679 421.37 84.792 413.91s-36.397 5.212-45.986-7.114c-8.406-2.303-10.592-11.532-10.592-11.532s-8.75-4.364-8.181-9.51c-3.743-2.008-6.393-4.698-3.894-9.515z" fill="#E2D8F4"/><path d="M242.586 845.265c-15.104 0-32.297-1.724-49.793-6.932-39.17-11.658-67.825-37.142-85.171-75.741-28.719-63.908-12.336-182.7-3.534-246.52 2.262-16.397 4.048-29.349 4.168-35.439.569-28.762-12.447-58.035-24.466-64.992-5.211-3.017-12.867-2.351-20.269-1.707-9.761.848-19.85 1.727-25.878-5.397-7.419-2.37-10.299-9.376-11.114-11.903-2.24-1.248-7.989-4.895-8.489-9.719-4.876-3.004-6.113-6.9-3.678-11.597 2.399-4.626 13.857-6.743 34.079-6.311 15.375.334 32.14 2.281 38.166 4.434 16.255 5.806 45.962 29.258 57.795 45.625 11.991 16.585 28.413 39.299 36.723 76.996l.528 2.41c3.794 17.365 11.688 53.5 30.173 84.837 22.709 38.499 53.714 56.423 92.156 53.289 7.29-.594 16.731 4.383 20.489 31.459 7.559 54.458-12.735 167.523-42.598 173.401-9.162 1.804-23.012 3.807-39.288 3.807zM72.88 409.382c4.692 0 9.157.623 12.914 2.797 13.008 7.53 27.074 37.528 26.462 68.533-.126 6.326-1.837 18.733-4.205 35.907-8.747 63.422-25.028 181.474 3.22 244.333 42.142 93.78 140.646 82.326 169.831 76.581 11.496-2.263 23.834-27.408 32.199-65.623 8.011-36.592 10.84-77.141 7.209-103.304-1.504-10.837-5.612-28.887-16.201-28.022-40.104 3.279-72.374-15.312-95.928-55.243-18.811-31.889-26.797-68.447-30.636-86.015l-.526-2.403c-8.131-36.887-24.272-59.212-36.059-75.514-11.258-15.573-40.514-38.706-55.898-44.202-5.684-2.03-21.896-3.875-36.907-4.201-22.095-.477-29.524 2.385-30.441 4.153-1.333 2.57-1.259 4.512 3.064 6.832a2 2 0 0 1 1.043 1.982c-.313 2.826 4.641 6.274 7.088 7.502.529.265.915.752 1.052 1.328.019.075 2.05 8.112 9.174 10.064.417.114.785.36 1.05.701 4.638 5.961 13.456 5.194 22.791 4.381 3.24-.282 6.525-.568 9.705-.568z" fill="#531CB3"/><path d="M89.606 404.62c-5.703 3.491-33.242-8.21-39.383-9.612-5.735-1.309-10.867 5.143-4.215 12.728s24.045 17.794 58.805 26.811" fill="#E2D8F4"/><path d="M104.814 436.548c-.166 0-.335-.021-.503-.064-40.268-10.446-54.755-21.668-59.807-27.428-3.711-4.231-4.655-8.89-2.526-12.46 1.732-2.907 5.226-4.326 8.69-3.537 1.77.404 4.974 1.529 9.029 2.952 8.281 2.907 25.513 8.956 28.864 6.903.264-.161.88-.539.609-1.894-.776-3.892-7.4-10.152-17.818-11.783-12.144-1.902-24.519-1.413-34.46-1.021-8.185.323-14.098.556-17.487-.564a2 2 0 0 1 1.254-3.797c2.704.893 8.9.648 16.076.365 10.113-.4 22.705-.896 35.236 1.065 11.72 1.835 19.943 9.043 21.122 14.952.52 2.601-.372 4.82-2.444 6.088-4.594 2.814-17.338-1.297-32.276-6.541-3.781-1.327-7.047-2.473-8.596-2.827-1.801-.412-3.509.251-4.364 1.686-1.195 2.006-.411 4.913 2.099 7.774 3.822 4.359 17.107 15.637 57.803 26.193a2 2 0 0 1-.501 3.936z" fill="#531CB3"/><path d="M38.439 398.649c-3.834 0-7.756-.507-10.827-1.477a2 2 0 0 1 1.205-3.815c4.405 1.391 11.091 1.696 15.895.725a2 2 0 0 1 .793 3.92c-2.15.435-4.59.646-7.065.646zm265.707 239.942c-94.595 7.724-118.214-111.434-124.973-142.098-2.126-9.645-7.139 5.537-4.127 25.217 2.65 17.313 11.08 40.248 28.127 66.683 4.794 7.435 4.325 17.653-2.4 17.38-9.347-.379-21.006-1.581-17.432 19.832 3.647 21.847 26.685 41.287 45.52 56.631 20.37 16.594 55.973 41.093 88.778 49.758 11.23-66.947 9.913-95.314-13.494-93.402z" fill="#531CB3"/><path d="M317.64 733.993c-.171 0-.343-.022-.511-.066-38.424-10.149-78.242-40.945-89.531-50.141-16.855-13.732-42.329-34.485-46.229-57.853-1.447-8.671-.604-14.635 2.576-18.231 3.967-4.484 10.37-4.208 16.013-3.966l.896.038c1.263.048 2.116-.412 2.712-1.455 1.434-2.508 1.05-7.998-2.074-12.843-19.613-30.417-26.281-53.476-28.422-67.464-2.046-13.359-.753-29.573 3.979-30.456 1.975-.365 3.338 1.15 4.077 4.505l.528 2.41c3.794 17.365 11.688 53.5 30.173 84.837 22.708 38.497 53.736 56.422 92.156 53.289 6.53-.536 11.696 1.199 15.327 5.152 9.43 10.264 9.514 35.658.303 90.575a1.997 1.997 0 0 1-1.973 1.669zM195.942 607.621c-3.638 0-6.995.462-9.001 2.73-2.299 2.599-2.846 7.62-1.627 14.923 3.651 21.878 28.421 42.057 44.812 55.409 10.923 8.899 48.915 38.3 85.906 48.795 8.503-51.351 8.584-76.042.333-85.023-2.792-3.039-6.729-4.304-12.056-3.872-40.104 3.279-72.374-15.312-95.928-55.243-18.811-31.889-26.798-68.447-30.636-86.016l-.387-1.763c-1.096 4.143-1.979 13.104-.336 23.844 2.082 13.604 8.601 36.079 27.83 65.902 3.655 5.669 4.574 12.817 2.186 16.997-1.341 2.347-3.599 3.579-6.347 3.466l-.906-.039c-1.285-.055-2.582-.111-3.844-.111zm108.204 30.969h.01z" fill="#531CB3"/><ellipse cx="293.999" cy="303.045" fill="#E2D8F4" rx="20.503" ry="14.253" transform="matrix(.73370615 -.67946692 .67946692 .73370615 -127.619 280.463)"/><path d="M287.307 302.552a2 2 0 0 1-1.756-2.955c1.36-2.506 6.144-6.632 11.235-7.537 3.291-.585 6.294.217 8.681 2.319a2 2 0 0 1-2.642 3.002c-1.483-1.306-3.233-1.758-5.338-1.383-3.89.691-7.603 4-8.42 5.507a2 2 0 0 1-1.76 1.046z" fill="#531CB3"/><path d="M294.008 311.208a1.999 1.999 0 0 1-1.994-2.176l1.26-14.263a2 2 0 1 1 3.984.352l-1.26 14.263a2 2 0 0 1-1.99 1.824z" fill="#531CB3"/><ellipse cx="195.102" cy="310.18" fill="#fff" rx="10.317" ry="21.872" transform="matrix(.00731286 -.99997326 .99997326 .00731286 -116.496 503.01)"/><g fill="#531CB3"><path d="m195.395 322.498-.383-.001c-13.608-.1-23.833-5.469-23.782-12.49.052-6.956 10.161-12.144 23.579-12.144l.383.001c6.131.045 11.918 1.228 16.295 3.332 4.854 2.333 7.513 5.585 7.486 9.159-.052 6.956-10.16 12.144-23.578 12.144zm-20.165-12.463c-.028 3.934 8.101 8.376 19.812 8.462 11.749.102 19.902-4.238 19.932-8.171.014-1.91-1.888-3.923-5.219-5.524-3.856-1.854-9.039-2.897-14.592-2.938-11.705-.062-19.903 4.238-19.933 8.171z"/><ellipse cx="183.15" cy="309.205" rx="8.419" ry="8.833" transform="matrix(.91383628 -.40608282 .40608282 .91383628 -109.783 101.017)"/><path d="M194.625 362.325c-3.184 0-6.576-.681-10.156-2.042a2 2 0 0 1 1.422-3.738c5.844 2.222 10.999 2.357 15.325.404 6.45-2.913 9.022-9.604 9.047-9.672a2.003 2.003 0 0 1 2.571-1.175 1.999 1.999 0 0 1 1.181 2.564c-.124.336-3.129 8.277-11.104 11.906-2.568 1.169-5.338 1.753-8.286 1.753zm18.604-72.556c-.472 0-.946-.167-1.327-.504-6.96-6.18-15.39-5.461-15.473-5.454a2.003 2.003 0 0 1-2.183-1.796 1.997 1.997 0 0 1 1.786-2.184c.416-.042 10.214-.938 18.525 6.443a2 2 0 0 1-1.329 3.496zm24.129 117.946c5.478-1.459 18.373-7.099 26.52-13.444 5.777-4.499 9.567 2.827 5.525 6.111-11.528 9.367-21.105 24-22.287 39.805 0 0-5.227-23.669-9.757-32.472z"/><path d="M247.115 442.187a2 2 0 0 1-1.952-1.569c-.052-.234-5.224-23.517-9.583-31.988a2.001 2.001 0 0 1 1.263-2.848c4.908-1.308 17.729-6.799 25.806-13.089 3.785-2.948 7.29-1.994 9.083.261 1.886 2.37 2.013 6.477-1.068 8.98-12.455 10.12-20.513 24.476-21.554 38.401a1.999 1.999 0 0 1-1.996 1.851zm-6.972-33.233c2.464 5.725 4.965 14.686 6.691 21.475 3.294-11.757 10.851-23.102 21.308-31.598a2.443 2.443 0 0 0 .46-3.386c-1.027-1.293-2.787-.146-3.496.405-7.29 5.678-18.414 10.896-24.963 13.104z"/><ellipse cx="525.823" cy="899.06" rx="365.594" ry="61.092" transform="matrix(.90181744 -.43211723 .43211723 .90181744 -336.873 315.489)"/><path d="M223.443 1068.477c-15.438 0-25.64-3.307-29.122-10.573-9.643-20.124 37.396-58.815 78.554-87.729 57.373-40.306 137.522-85.768 225.686-128.012 162.951-78.08 341.697-137.561 358.767-101.946 9.643 20.124-37.396 58.815-78.554 87.729-57.373 40.305-137.523 85.768-225.687 128.012-129.703 62.148-269.424 112.52-329.644 112.52zm-25.515-12.302c3.13 6.531 14.97 9.262 34.24 7.899 19.609-1.387 46.065-6.861 78.634-16.271 67.155-19.403 152.586-53.302 240.556-95.454s167.917-87.496 225.115-127.678c27.74-19.487 48.583-36.677 61.949-51.092 13.137-14.166 18.426-25.105 15.297-31.636-3.129-6.53-14.968-9.261-34.24-7.899-19.609 1.387-46.066 6.861-78.635 16.271-67.155 19.403-152.586 53.303-240.556 95.454-87.97 42.152-167.917 87.496-225.115 127.678-27.739 19.487-48.582 36.677-61.949 51.092-13.136 14.166-18.425 25.105-15.296 31.636z"/></g><path d="M540.981 595.035c-19.505-42.946-39.097-72.074-62.231-96.131-66.966 43.358-146.231 54.952-233.362 14.538-17.245 63.23-38.932 167.292-23.86 244.161 21.807 111.218 76.036 217.894 138.609 276.583 56.167-19.344 122.463-46.673 192.084-80.033 79.421-38.055 150.029-77.659 203.199-112.748-46.063-38.265-169.06-146.449-214.44-246.371z" fill="#fff"/><path d="M636.743 730.943c-16.251 25.61-40.615 47.477-73.863 63.602-6.167 2.991-.822 17.128 15.728 15.062 20.69-2.583 69.045-21.411 83.389-10.193 18.736 14.653-2.278 37.895 29.048 42.316 22.917 3.234 39.537 14.021 27.466 23.047 14.218-9.152 26.26-16.538 36.911-23.371-25.074-20.829-72.94-60.807-118.678-110.463z" fill="#531CB3"/><path d="M718.512 866.777a1.999 1.999 0 0 1-1.2-3.601c2.563-1.917 3.613-3.861 3.122-5.779-1.225-4.777-12.039-11.198-29.67-13.686-19.47-2.748-20.413-12.892-21.326-22.703-.652-7.016-1.327-14.271-8.675-20.018-9.262-7.246-35.86-.403-57.228 5.092-9.435 2.427-18.346 4.719-24.681 5.51-11.318 1.415-18.326-4.224-20.054-10.058-1.12-3.783.168-7.315 3.205-8.788 31.774-15.41 56.352-36.564 73.048-62.875a2 2 0 0 1 3.159-.283c46.489 50.472 95.116 90.867 118.485 110.279a2.003 2.003 0 0 1-.198 3.222c-4.756 3.051-9.809 6.224-15.157 9.584-6.824 4.286-13.88 8.718-21.752 13.785a1.99 1.99 0 0 1-1.08.318zM647.7 793.876c6.476 0 11.888 1.116 15.528 3.963 8.706 6.809 9.496 15.304 10.193 22.798.907 9.757 1.563 16.806 17.901 19.112 14.831 2.093 30.781 8.054 32.986 16.654a7.84 7.84 0 0 1 .248 2.13c5.126-3.26 9.947-6.288 14.658-9.247 4.484-2.817 8.761-5.502 12.822-8.091-23.851-19.822-70.238-58.685-115.015-107.001-17.06 25.937-41.697 46.838-73.271 62.15-1.493.724-1.556 2.569-1.116 4.053 1.264 4.267 6.717 8.346 15.723 7.225 6.082-.759 14.873-3.021 24.181-5.415 15.509-3.989 32.395-8.333 45.16-8.333z" fill="#531CB3"/><path d="M505.535 947.738c-7.181 6.818-37.263 35.874-57.361 31.827-8.625-1.737-18.675-10.015-26.429-14.172-10.403-5.577-34.616-1.011-47.621 14.389-7.616 9.019-16.15 17.199-27.921 18.074-6.999.52-16.228-2.995-24.722-7.349 12.351 16.458 25.779 31.844 39.122 44.359 5.265.807 169.701-68.944 189.739-79.662-13.362-7.49-29.955-21.569-44.806-7.467z" fill="#E2D8F4"/><path d="M676.441 577.546c-22.921-58.021-55.921-104.785-152.265-140.718-4.709 42.817-71.4 86.868-127.529 95.016l32.924 67.99c37.137 42.188-8.821 84.113-90.947 103.579L475.428 840.43c177.253-19.089 253.724-129.456 201.013-262.885z" fill="#fff"/><path d="M360.811 578.087c-8.365-6.379-16.767-8.153-20.737-6.608-1.682.654-2.65 1.6-3.14 3.067-1.805 5.405 3.194 15.33 5.088 18.38a4 4 0 0 1-4.642 5.912c-10.067-3.278-37.824-8.658-45.228 5.618-1.609 3.104-1.021 4.761-.438 5.736 3.494 5.852 20.367 8.964 32.813 9.552a62.08 62.08 0 0 1 3.069.099c2.169.133 3.835 1.974 3.752 4.146s-1.862 3.897-4.059 3.847a93.602 93.602 0 0 1-2.725-.087l-.551-.002c-7.63 0-21.314 1.306-26.389 7.54-2.042 2.51-2.491 5.74-1.372 9.876 1.698 6.281 11.929 9.285 27.362 8.042 26.373-2.129 55.416-15.488 56.503-25.99 2.977-28.781-12.511-43.943-19.308-49.126zm195.277 87.979c3.771-1.49 10.129-4.591 10.332-8.62.297-5.881-10.895-14.377-18.936-18.532a4.002 4.002 0 0 1-.449-6.838c10.78-7.503 36.832-30.626 28.035-47.3-2.019-3.826-4.712-5.985-8.235-6.601-10.498-1.839-26.062 9.853-31.17 14.511a4 4 0 0 1-6.372-4.531c2.365-5.543 7.551-21.979 3.181-31.309-1.519-3.244-4.07-5.365-7.8-6.483-5.031-1.512-11.362 1.458-17.365 8.141-15.925 17.728-25.098 54.983-10.737 89.1 7.805 18.536 40.145 26.115 59.517 18.463z" fill="none"/><path d="M489.198 650.707c7.14 16.957 29.58 26.249 49.986 26.249 7.104 0 13.965-1.127 19.843-3.45 9.885-3.905 15.06-9.175 15.383-15.665.483-9.702-10.78-18.416-17.88-22.921 11.26-9.012 36.817-32.646 25.616-53.878-3.206-6.077-7.895-9.693-13.935-10.749-9.343-1.633-20.011 3.629-27.653 8.638 1.781-7.771 2.778-17.739-.833-25.465-2.504-5.358-6.795-8.981-12.753-10.768-8.242-2.476-17.338 1.242-25.615 10.458-17.57 19.559-27.803 60.395-12.159 97.55zm18.11-92.204c6.003-6.684 12.334-9.653 17.365-8.141 3.729 1.119 6.281 3.239 7.8 6.483 4.37 9.331-.815 25.766-3.181 31.309a4 4 0 0 0 6.372 4.531c5.108-4.658 20.672-16.35 31.17-14.511 3.523.615 6.217 2.774 8.235 6.601 8.797 16.674-17.255 39.797-28.035 47.3a4 4 0 0 0 .449 6.838c8.041 4.155 19.232 12.651 18.936 18.532-.203 4.029-6.561 7.13-10.332 8.62-19.372 7.652-51.712.073-59.517-18.463-14.36-34.117-5.188-71.372 10.737-89.1zm-119.232 69.534c3.394-32.81-14.544-50.31-22.413-56.311-9.911-7.557-21.093-10.58-28.489-7.703-3.88 1.509-6.587 4.272-7.828 7.99-1.799 5.389-.177 11.906 1.826 16.973-13.134-2.753-37.341-5.144-46.12 11.788-3.181 6.135-1.866 10.74-.204 13.523 2.75 4.602 8.65 7.64 15.216 9.646-3.367 1.508-6.4 3.543-8.634 6.284-2.57 3.154-5.16 8.667-2.898 17.025 2.512 9.284 12.54 14.23 28.524 14.23a89.85 89.85 0 0 0 7.204-.304c25.429-2.053 62.008-15.654 63.816-33.141zm-7.957-.823c-1.087 10.501-30.13 23.861-56.503 25.99-15.434 1.243-25.664-1.76-27.362-8.042-1.119-4.136-.67-7.367 1.372-9.876 5.074-6.234 18.759-7.54 26.389-7.54.187 0 .371 0 .551.002 1.311.06 2.258.08 2.725.087 2.196.051 3.976-1.675 4.059-3.847s-1.583-4.012-3.752-4.146a62.08 62.08 0 0 0-3.069-.099c-12.445-.587-29.318-3.7-32.813-9.552-.583-.976-1.171-2.632.438-5.736 7.403-14.276 35.16-8.896 45.228-5.618a4 4 0 0 0 4.642-5.912c-1.894-3.051-6.893-12.975-5.088-18.38.489-1.467 1.458-2.413 3.14-3.067 3.971-1.545 12.372.229 20.737 6.608 6.797 5.183 22.284 20.345 19.308 49.126zm276.12 233.563c-9.299 0-13.492 9.022-16.555 15.611-.719 1.547-1.711 3.681-2.503 4.921-.478-.988-.995-2.543-1.345-3.594-1.541-4.634-4.12-12.39-12.578-12.39-12.757 0-21.044 19.649-31.875 55.908-1.578 5.284-2.235 10.198-2.153 14.762 2.727-1.37 5.438-2.741 8.139-4.113.258-2.619.795-5.398 1.68-8.359 4.101-13.729 14.993-50.198 24.209-50.198 2.299 0 3.262 1.727 4.987 6.915 1.347 4.048 3.021 9.086 8.159 9.729 5.47.678 8.045-4.853 10.534-10.208 2.893-6.223 5.414-10.983 9.284-10.983 1.45.105 6.82 3.934 14.166 15.1a121.361 121.361 0 0 1 4.1 6.716c2.325-1.315 4.637-2.629 6.929-3.939-2.195-3.889-4.429-7.417-6.582-10.445-5.004-7.039-12.293-15.43-18.598-15.43zm-100.977 11.639c8.81-11.989 11.564-32.575 6.55-48.949a4 4 0 1 0-7.648 2.343c4.262 13.92 1.963 31.92-5.348 41.869-3.422 4.657-7.524 7.033-12.194 7.062h-.061c-8.483 0-9.36-11.268-9.393-11.735a4 4 0 0 0-7.23-2.102c-15.026 20.726-40.958 48.332-51.581 44.784-2.99-.997-3.769-2.55-4.094-3.632-1.847-6.146 5.275-18.39 10.197-24.663a4 4 0 0 0-4.724-6.148c-6.105 2.621-23.758 8.68-32.003 5.296-1.656-.68-2.704-1.674-3.295-3.127-.47-1.156-1.702-7.836 20.272-25.883 15.405-12.652 33.661-23.93 38.889-27.085a4 4 0 1 0-4.133-6.85c-5.345 3.226-24.013 14.759-39.833 27.752-18.857 15.487-26.041 26.634-22.605 35.079 1.396 3.431 4.049 6.031 7.674 7.517 7.522 3.085 18.49 1.085 26.783-1.315-3.603 6.551-6.897 15.016-4.886 21.722.889 2.966 3.212 6.922 9.228 8.927 1.394.464 2.865.698 4.42.697 8.783 0 20.169-7.441 34.603-22.573 6.674-6.998 12.573-14.163 16.509-19.164 2.409 5.418 7.053 10.503 15.19 10.502h.121c7.233-.045 13.662-3.615 18.592-10.324zm-237.736 30.995c5.954-10.781 7.016-19.708 2.913-24.495-6.924-8.077-18.594-6.314-26.596-3.735 3.526-11.66 7.294-31.536-4.37-40.087-3.054-2.238-6.847-2.904-10.971-1.918-9.325 2.226-20.008 12.812-28.68 23.612 1.1 2.919 2.218 5.825 3.356 8.715 8.648-11.275 19.545-22.724 27.181-24.546a7.668 7.668 0 0 1 1.773-.229c1.302 0 2.09.437 2.609.818 9.32 6.833 1.977 31.203-1.33 39.201a4 4 0 0 0 5.586 5.056c.184-.098 18.556-9.625 25.366-1.68.928 1.082 1.209 6.275-3.842 15.421-4.613 8.353-14.606 20.675-28.584 28.37a543.215 543.215 0 0 0 3.797 6.982c13.931-7.552 25.143-19.449 31.79-31.485zM563.187 454.52c-4.521 7.954-7.265 16.52-7.432 24.143-.165 7.521 2.135 13.884 6.651 18.4 4.913 4.914 14.2 7.075 24.358 7.075 8.686 0 18.008-1.58 25.776-4.37 4.213-1.513 7.747-3.316 10.548-5.345a186.512 186.512 0 0 0-6.201-5.473c-1.947 1.188-4.322 2.309-7.051 3.289-15.484 5.561-35.784 5.157-41.774-.833-2.978-2.978-4.427-7.206-4.31-12.568.14-6.36 2.589-13.744 6.553-20.632a389.448 389.448 0 0 0-7.119-3.686zm-138.812 83.736c6.63 4.614 13.363 6.952 19.864 6.952 3.101 0 6.149-.532 9.106-1.603 16.797-6.077 23.26-24.527 25.024-43.063a152.932 152.932 0 0 1-8.88 5.749c-2.327 13.735-7.856 25.809-18.866 29.792-6.705 2.427-14.002.95-21.68-4.394-2.291-1.594-4.509-3.469-6.638-5.541a237.684 237.684 0 0 1-8.864 2.295c3.396 3.766 7.064 7.12 10.933 9.813zm-179.563 42.401c9.578-2.769 15.514-8.476 16.715-16.07 1.606-10.165-6.093-21.431-21.124-30.909l-.265-.164a1009.87 1009.87 0 0 0-2.025 8.225c10.599 7.169 16.504 15.325 15.512 21.599-.708 4.481-4.421 7.722-11.034 9.634-3.516 1.016-7.573 1.53-11.812 1.617a870.476 870.476 0 0 0-1.598 8c.145 0 .29.004.434.004 5.395 0 10.623-.613 15.197-1.936z" fill="#E2D8F4"/><path d="M360.138 1036.187c-.5 0-.991-.188-1.368-.541-31.043-29.116-60.438-70.318-85.011-119.153-24.776-49.244-43.517-104.054-54.193-158.504-15.688-80.013 8.371-188.774 24.109-246.483a1.999 1.999 0 0 1 2.926-1.208c64.573 37.096 149.335 27.627 204.693 1.788 40.399-18.857 66.526-46.301 71.682-75.294a2.002 2.002 0 0 1 .98-1.389 1.994 1.994 0 0 1 1.695-.132c94.384 35.691 129.284 82.396 152.649 141.541 13.354 33.807 18.651 66.468 15.742 97.077-2.819 29.662-13.253 56.613-31.019 80.135 38.185 38.698 75.009 70.338 93.675 85.844a2.003 2.003 0 0 1-.177 3.208c-54.948 36.262-127.196 76.351-203.437 112.882-67.439 32.314-133.935 60.02-192.297 80.121a2.008 2.008 0 0 1-.651.109zM246.862 515.038C231.216 573 208.18 679.132 223.492 757.22c21.219 108.213 74.988 215.855 137.138 274.683 57.944-20.019 123.864-47.513 190.729-79.552 75.046-35.959 146.195-75.359 200.712-111.133-19.5-16.279-55.743-47.633-93.114-85.625a1.999 1.999 0 0 1-.157-2.625c36.17-46.851 41.775-108.889 15.782-174.687-22.791-57.693-56.793-103.366-148.131-138.427-6.336 29.409-32.951 56.946-73.463 75.855-29.801 13.91-68.011 23.143-107.128 23.145-33.94.001-68.558-6.944-98.997-23.817z" fill="#531CB3"/><path d="M423.013 665.708c-18.053 15.747-47.585 28.983-84.389 37.707-83.136 19.705-188.463-17.179-197.305-26.021s-29.053-18.947-42.695-20.463-20.716-3.032-27.537-6.569-16.421 1.011-12.126 9.6 21.979 14.4 24.253 18.189c2.274 3.79-10.947 8.595-19.958 10.358-11.621 2.274-39.411 3.032-54.728 2.173-10.102-.566-8.177 12.985 3.697 15.764.758 8.084 8.281 11.939 16.674 13.137 1.079 2.247 7.832 6.568 19.2 8.337 1.972 6.027 20.968 8.589 37.895 3.789 14.373-4.076 29.611-9.026 36.884-5.645 39.313 18.276 195.843 158.416 402.947 104.855 6.781-54.495-44.821-138.533-102.811-165.212z" fill="#E2D8F4"/><path d="M259.257 717.108c49.603 2.13 71.128-4.835 83.945-14.815-1.515.381-3.038.757-4.578 1.122-61.461 14.567-135.041-1.792-172.807-14.886 11.24 11.539 36.366 26.129 93.441 28.58z" fill="#fff"/><path d="M28.51 709.515c-7.592 0-13.879-.385-16.784-1.132a1.998 1.998 0 0 1-1.438-2.435 1.998 1.998 0 0 1 2.435-1.439c8.289 2.132 52.769.912 61.056-4.534a2 2 0 0 1 2.198 3.343c-6.427 4.224-30.284 6.198-47.465 6.198zm8.685 12.417c-3.053 0-5.926-.114-8.487-.357a2.001 2.001 0 0 1 .379-3.983c15.979 1.521 41.909-2.114 48.891-5.837a2.001 2.001 0 0 1 1.883 3.53c-6.936 3.699-27.115 6.647-42.665 6.647zm15.79 8.346c-2.2 0-4.042-.128-5.313-.404a2 2 0 1 1 .85-3.909c5.194 1.129 25.632-.925 33.088-4.405a2 2 0 0 1 1.691 3.625c-6.306 2.943-21.309 5.094-30.316 5.094zm387.992-3.569c3.988-8.652.207-18.898-8.445-22.886l-40.38-18.613c-13.425 6.387-29.132 11.961-46.633 16.493l72.571 33.451c8.652 3.988 18.898.207 22.886-8.445z" fill="#531CB3"/><path d="M425.282 738.737c-2.694 0-5.428-.568-8.029-1.767l-72.571-33.451a2 2 0 0 1 .336-3.753c17.298-4.479 32.867-9.984 46.275-16.363a1.997 1.997 0 0 1 1.696-.01l40.38 18.613c9.64 4.444 13.867 15.901 9.424 25.541-3.244 7.037-10.228 11.19-17.511 11.19zm-73.9-36.534 67.545 31.134c7.639 3.521 16.713.172 20.233-7.465 3.521-7.636.171-16.712-7.465-20.233l-39.532-18.222c-12.031 5.654-25.723 10.617-40.781 14.786z" fill="#531CB3"/><path d="M680.2 588.392c-6.207-18.766 1.836 52.696-7.638 85.464-13.979 48.351-38.524 62.915-46.86 65.063-7.869 2.027-4.882-21.518-6.903-33.644s-19.728-17.008-23.106 4.592c-3.212 20.535-.57 62.992 7.413 92.293 89.717-52.514 104.715-130.264 77.095-213.768z" fill="#E2D8F4"/><path d="M431.502 845.053c-127.313.008-227.47-65.106-280.002-99.25-12.755-8.29-22.829-14.838-29.467-17.924-5.917-2.751-18.886.982-31.427 4.59-1.359.391-2.718.782-4.069 1.165-15.127 4.29-35.495 3.189-39.795-3.91-9.697-1.679-16.626-5.289-19.021-8.298-9.769-1.619-15.969-6.439-17.292-13.398C3.15 705.742-.606 699.549.082 694.767c.568-3.953 3.915-6.339 8.557-6.081 15.245.855 42.835.091 54.232-2.139 9.79-1.916 17.841-5.769 18.569-7.453-.759-1.043-4.304-3.003-7.168-4.586-6.327-3.499-14.202-7.853-17.102-13.651-2.05-4.1-1.63-8.022 1.151-10.763 3.314-3.266 9.068-3.901 13.685-1.507 6.271 3.251 12.792 4.795 26.837 6.356 13.454 1.495 34.373 11.521 43.889 21.037 7.5 7.5 111.86 45.295 195.43 25.489 55.047-13.048 92.731-35.983 100.806-61.352 4.122-12.953.455-26.062-10.898-38.96a2 2 0 1 1 3.002-2.642c12.347 14.026 16.286 28.431 11.708 42.816-8.504 26.719-47.269 50.656-103.695 64.031-44.93 10.647-94.068 4.629-127.381-2.293-37.183-7.729-66.878-19.339-71.799-24.26-8.997-8.996-28.778-18.476-41.502-19.89-14.605-1.623-21.467-3.271-28.237-6.781-3.018-1.564-6.987-1.212-9.036.806-1.906 1.878-1.259 4.367-.38 6.125 2.344 4.688 9.616 8.708 15.459 11.939 4.826 2.668 7.611 4.269 8.72 6.116.651 1.086.72 2.34.19 3.53-2.246 5.047-16.267 8.8-21.479 9.82-11.668 2.283-39.751 3.073-55.225 2.207-1.813-.098-4.03.278-4.372 2.657-.417 2.896 2.353 7.692 8.638 9.163a2 2 0 0 1 1.535 1.761c.762 8.12 9.702 10.593 14.964 11.344a2.003 2.003 0 0 1 1.521 1.113c.684 1.423 6.749 5.523 17.705 7.227a2 2 0 0 1 1.593 1.354c1.415 4.323 18.569 7.274 35.448 2.487 1.347-.382 2.701-.771 4.056-1.161 13.86-3.986 26.951-7.752 34.218-4.373 6.896 3.205 17.074 9.821 29.961 18.198 62.152 40.397 191.482 124.456 353.075 90.831 83.942-17.467 140.002-51.868 166.622-102.248 23.785-45.014 22.471-102.259-3.8-165.547-24.248-58.418-78.78-104.364-153.551-129.374-59.969-20.06-128.784-24.362-171.233-10.709a2 2 0 1 1-1.225-3.808c43.197-13.896 113.012-9.586 173.728 10.723 35.26 11.794 66.179 28.134 91.896 48.564 29.305 23.28 50.864 51.229 64.081 83.069 26.742 64.425 28.001 122.847 3.642 168.949-13.158 24.901-33.731 46.286-61.15 63.559-28.661 18.055-65.063 31.761-108.194 40.736-26.248 5.462-51.668 7.855-76.067 7.857z" fill="#531CB3"/><path d="M525.825 832.919a1.999 1.999 0 0 1-1.994-2.176c2.46-27.782-7.521-61.921-27.387-93.664-19.77-31.591-46.838-56.947-74.264-69.564a2 2 0 1 1 1.672-3.634c28.115 12.935 55.81 38.841 75.982 71.076 20.317 32.466 30.516 67.507 27.98 96.139a2 2 0 0 1-1.99 1.824zm227.303 6.577c-17.712-14.79-45.347-38.736-75.382-68.029" fill="#531CB3"/><path d="M753.127 841.496a1.99 1.99 0 0 1-1.281-.465c-17.877-14.927-45.486-38.864-75.496-68.132a1.999 1.999 0 1 1 2.793-2.863c29.919 29.179 57.444 53.043 75.268 67.925a2 2 0 0 1-1.283 3.535z" fill="#fff"/><path d="M89.637 404.651c-5.711 3.477-33.222-8.289-39.36-9.705-5.732-1.323-10.879 5.117-4.245 12.718s24.002 17.851 58.741 26.951" fill="#E2D8F4"/><path d="M104.774 436.615c-.167 0-.338-.021-.508-.066-40.242-10.541-54.703-21.798-59.741-27.57-3.701-4.241-4.634-8.901-2.496-12.467 1.74-2.901 5.232-4.315 8.698-3.515 1.769.408 4.972 1.541 9.025 2.975 8.273 2.926 25.491 9.018 28.845 6.971a2 2 0 1 1 2.08 3.417c-4.604 2.802-17.332-1.338-32.258-6.617-3.779-1.337-7.044-2.491-8.593-2.849-1.793-.416-3.509.242-4.367 1.674-1.201 2.003-.424 4.912 2.079 7.78 3.813 4.368 17.071 15.678 57.741 26.331a2 2 0 0 1-.506 3.935zm226.865-4.676a2 2 0 0 1-1.204-3.599c.185-.138 4.609-3.422 13.018-6.706a2.001 2.001 0 0 1 1.455 3.727c-7.851 3.065-12.033 6.15-12.075 6.181a1.986 1.986 0 0 1-1.194.397zm159.16 406.322a384.034 384.034 0 0 0 35.024-7.341c3.605-28.977-9.297-66.308-30.89-98.926 11.649 23.336 22.755 87.765-4.134 106.267z" fill="#531CB3"/><path d="M490.798 840.261a1.998 1.998 0 0 1-1.132-3.648c25.592-17.609 14.979-80.688 3.479-103.727a1.999 1.999 0 0 1 3.457-1.997c23.025 34.784 34.691 72.271 31.206 100.277a1.998 1.998 0 0 1-1.483 1.689 387.734 387.734 0 0 1-35.207 7.379 2.035 2.035 0 0 1-.319.025zm12.825-89.931c7.18 26.713 10.328 66.218-6.267 84.782a384.381 384.381 0 0 0 26.637-5.788c2.354-22.355-5.11-50.835-20.37-78.994zm245.739-311.501a2 2 0 0 1 0-4c16.906 0 51.606-25.191 58.698-52.01a2 2 0 0 1 3.867 1.023c-7.213 27.278-42.481 54.987-62.565 54.987z" fill="#531CB3"/><path d="M445.776 374.823c-1.975-11.788 7.21-23.753 23.4-30.485 19.136-7.957 31.114-23.848 31.26-41.474.141-17.039-11.183-32.177-30.291-40.495-27.439-11.945-48.992-7.232-84.699.577-9.41 2.058-20.077 4.391-32.133 6.701-18.599 3.563-31.653-.502-41.1-12.79-8.759-11.395-13.559-28.634-18.2-45.306a984.628 984.628 0 0 0-2.38-8.455c-5.351-18.6-18.924-32.58-37.24-38.354-15.27-4.814-30.834-2.888-40.62 5.025-8.354 6.757-20.688 5.339-28.762 1.143a81.835 81.835 0 0 0-5.728 7.113c.395.23.787.462 1.198.682 10.599 5.663 27.309 7.474 38.951-1.938 7.356-5.949 20.018-7.299 32.256-3.44 15.388 4.851 26.796 16.609 31.298 32.259a993.869 993.869 0 0 1 2.358 8.381c8.66 31.107 18.352 65.939 55.753 65.936 4.262 0 8.89-.453 13.91-1.416 12.171-2.332 22.898-4.678 32.362-6.748 35.088-7.674 54.416-11.899 79.185-1.117 15.926 6.933 24.995 18.658 24.883 32.169-.115 13.955-9.969 26.691-25.715 33.238-20.201 8.399-31.515 24.211-28.821 40.282.76 4.539 2.737 9.249 6.141 13.638a127.577 127.577 0 0 0 9.672-2.697c-3.746-3.583-6.158-7.78-6.936-12.428zm170.959 6.72c3.667-4.965 4.48-10.574 2.352-16.221-1.982-5.261-8.065-9.479-15.109-14.364-18.931-13.128-31.217-24.145-16.788-46.437 7.579-11.709 18.146-21.838 28.365-31.633 18.207-17.451 35.403-33.933 33.747-57.122-1.369-19.168-8.394-34.17-20.877-44.588-15.962-13.321-40.061-18.33-71.636-14.891-32.75 3.569-53.81-1.321-64.375-14.952-11.758-15.171-10.753-42.213 2.961-80.406a227.079 227.079 0 0 0-12.359 8.512c-11.118 35.696-10.345 61.114 2.284 77.408 12.64 16.309 36.348 22.321 72.463 18.386 29.048-3.165 50.882 1.159 64.895 12.853 10.534 8.792 16.479 21.685 17.667 38.32 1.354 18.974-13.638 33.344-30.998 49.983-10.592 10.152-21.544 20.65-29.692 33.24-8.826 13.636-10.043 26.204-3.615 37.354 5.317 9.225 15.027 15.958 22.829 21.369 5.321 3.69 10.822 7.505 11.816 10.143 1.056 2.801.695 5.176-1.169 7.7-2.031 2.75-5.552 5.292-10.182 7.613a434.99 434.99 0 0 1 8.005 5.771c4.028-2.43 7.25-5.103 9.417-8.037zm84.377-326.688c6.177-4.802 12.458-9.689 16.979-15.529a265.44 265.44 0 0 0-9.342-2.883c-3.573 3.853-8.216 7.464-13.16 11.306-13.96 10.85-29.783 23.148-27.979 46.911 1.627 21.419 20.145 38.801 38.053 55.61 17.247 16.189 33.538 31.48 32.182 47.76-1.612 19.351-12.425 29.357-22.881 39.033-8.252 7.637-16.046 14.85-18.926 25.889-3.28 12.573 6.306 27.739 17.405 45.299 12.045 19.054 25.695 40.651 24.489 61.684-.804 13.998-8.429 27.673-21.47 38.505-7.472 6.205-16.18 10.935-25.439 14.025 6.318.856 12.626 1.341 18.841 1.414a85.38 85.38 0 0 0 12.348-8.516c14.982-12.444 23.756-28.395 24.704-44.913 1.373-23.916-13.098-46.81-25.865-67.009-9.565-15.132-18.6-29.424-16.305-38.219 2.215-8.493 8.756-14.546 16.33-21.555 11.172-10.338 23.834-22.056 25.736-44.892 1.718-20.613-16.944-38.129-34.991-55.069-16.654-15.632-33.876-31.797-35.237-49.729-1.439-18.942 11.174-28.745 24.527-39.124z" fill="#fff"/></svg></g><g transform="translate(468.0 184.0) rotate(-16.93358674721063 76.0 76.0) scale(0.6710698265814291 0.6710698265814291)"><svg width="226.504" height="226.504" viewBox="0 0 226.504 226.504"><path d="M219.107 30.526 198.423 9.711a23.769 23.769 0 0 0-1.246-1.254l-.058-.058-.002.001A23.764 23.764 0 0 0 180.866 2H29.773C14.434 2 2 14.434 2 29.773v151.093a23.748 23.748 0 0 0 5.688 15.45l-.002.003.035.035a23.942 23.942 0 0 0 2.573 2.582l19.201 19.272 13.63-13.491h137.742c13.173 0 23.852-10.679 23.852-23.852V44.769z" fill="#531CB3"/><path d="M29.494 220.209a1.995 1.995 0 0 1-1.417-.588L8.929 200.4a26.254 26.254 0 0 1-2.764-2.788A25.856 25.856 0 0 1 0 180.866V29.773C0 13.356 13.356 0 29.773 0h151.093a25.758 25.758 0 0 1 17.667 6.985c.504.475.946.92 1.363 1.374l20.63 20.759a1.996 1.996 0 0 1-.011 2.831l-13.796 13.656v135.262c0 14.255-11.597 25.852-25.852 25.852H43.946L30.901 219.63c-.39.386-.898.579-1.407.579zM9.226 195.038l.014.016c.721.844 1.515 1.64 2.359 2.368.039.033.076.067.111.103l17.794 17.86 12.213-12.089c.374-.371.88-.579 1.407-.579h137.742c12.049 0 21.852-9.802 21.852-21.852V44.769c0-.534.213-1.046.593-1.421l12.965-12.833-19.271-19.394a23.21 23.21 0 0 0-1.196-1.206l-.033-.032-.021-.02A21.779 21.779 0 0 0 180.866 4H29.773C15.562 4 4 15.562 4 29.773v151.093a21.854 21.854 0 0 0 5.21 14.153l.016.019z" fill="#531CB3"/><path d="M199.504 224.504H46.786c-13.807 0-25-11.193-25-25V46.787c0-13.807 11.193-25 25-25h152.717c13.807 0 25 11.193 25 25v152.717c.001 13.807-11.192 25-24.999 25z" fill="#FFC83D"/><g fill="#531CB3"><path d="M199.504 226.504H46.786c-14.888 0-27-12.112-27-27V46.786c0-14.888 12.112-27 27-27h152.718c14.888 0 27 12.112 27 27v152.718c0 14.888-12.112 27-27 27zM46.786 23.786c-12.682 0-23 10.318-23 23v152.718c0 12.682 10.318 23 23 23h152.718c12.682 0 23-10.318 23-23V46.786c0-12.682-10.318-23-23-23z"/><path d="m174.582 123.117.014.027c0-5.206 5.429-11.903 11.597-18.744a11.14 11.14 0 0 0 1.751-12.236 71.993 71.993 0 0 0-5.965-10.262c-1.249-1.768-2.991-3.127-5.007-3.907s-4.216-.945-6.326-.475c-9.009 1.972-17.475 3.434-21.815.92h.041c-4.498-2.598-7.564-10.671-10.386-19.446a11.02 11.02 0 0 0-3.604-5.254 10.957 10.957 0 0 0-5.902-2.369 71.184 71.184 0 0 0-12.022.041c-2.151.202-4.195 1.036-5.876 2.398s-2.923 3.192-3.572 5.259c-2.797 8.806-5.762 16.89-10.1 19.414l.014-.041c-4.496 2.609-12.998 1.233-21.981-.701-2.117-.463-4.323-.287-6.341.506s-3.756 2.166-4.997 3.948a72.123 72.123 0 0 0-5.971 10.459 11.042 11.042 0 0 0 1.883 12.042c6.206 6.836 11.695 13.463 11.695 18.473l-.014-.027c0 5.208-5.429 11.904-11.595 18.744a11.131 11.131 0 0 0-1.752 12.235 72.088 72.088 0 0 0 5.965 10.262c1.249 1.768 2.991 3.128 5.007 3.908s4.216.945 6.326.476c9.008-1.972 17.475-3.434 21.813-.921h-.042c4.498 2.6 7.564 10.672 10.386 19.447a11.022 11.022 0 0 0 3.605 5.254 10.977 10.977 0 0 0 5.903 2.37c4.001.326 8.023.312 12.022-.038a10.955 10.955 0 0 0 5.876-2.399 11.014 11.014 0 0 0 3.572-5.259c2.797-8.808 5.762-16.891 10.1-19.416l-.014.041c4.498-2.609 12.998-1.232 21.983.702 2.117.462 4.323.286 6.34-.506a10.99 10.99 0 0 0 4.997-3.948 72.123 72.123 0 0 0 5.971-10.459 11.036 11.036 0 0 0-1.882-12.034c-6.207-6.841-11.697-13.468-11.697-18.484zm-51.437 25.373a25.197 25.197 0 0 1-14.036-4.272 25.322 25.322 0 0 1-9.305-11.375 25.43 25.43 0 0 1-1.438-14.644 25.368 25.368 0 0 1 6.914-12.977c3.533-3.545 8.035-5.959 12.936-6.937s9.981-.476 14.597 1.442a25.276 25.276 0 0 1 11.338 9.335 25.403 25.403 0 0 1-3.143 32.001 25.223 25.223 0 0 1-17.863 7.427z"/><path d="M123.092 197.152c-1.987 0-3.971-.08-5.941-.241a12.952 12.952 0 0 1-6.99-2.803 12.981 12.981 0 0 1-4.26-6.208c-2.634-8.19-5.606-16.083-9.481-18.323a2.032 2.032 0 0 1-.197-.13c-3.949-2.027-12.454-.411-20.147 1.273-2.497.556-5.084.361-7.475-.564s-4.438-2.522-5.919-4.619a74.21 74.21 0 0 1-6.138-10.556 13.092 13.092 0 0 1-1.152-7.528 13.083 13.083 0 0 1 3.221-6.903c5.758-6.388 11.083-12.916 11.083-17.408 0-.064.003-.127.009-.189-.21-4.838-7.323-12.674-11.171-16.912-1.727-1.89-2.852-4.233-3.249-6.771s-.041-5.114 1.028-7.449a74.59 74.59 0 0 1 6.141-10.759 12.963 12.963 0 0 1 13.413-5.275c8.386 1.806 16.685 3.168 20.55.925.081-.047.164-.087.248-.122 3.708-2.453 6.553-10.625 8.937-18.127a12.974 12.974 0 0 1 4.219-6.208 12.918 12.918 0 0 1 6.948-2.836 73.432 73.432 0 0 1 12.371-.043 12.93 12.93 0 0 1 6.991 2.802 12.97 12.97 0 0 1 4.258 6.207c2.633 8.19 5.606 16.083 9.481 18.322.069.04.134.083.197.129 3.946 2.029 12.454.413 20.149-1.271 2.496-.555 5.083-.362 7.475.563s4.438 2.522 5.919 4.618a74.21 74.21 0 0 1 6.138 10.556 13.088 13.088 0 0 1 1.152 7.527 13.089 13.089 0 0 1-3.22 6.903c-5.759 6.389-11.085 12.917-11.085 17.409 0 .064-.003.127-.009.189.21 4.84 7.325 12.682 11.173 16.925 1.725 1.889 2.849 4.231 3.246 6.767s.042 5.11-1.027 7.443a74.496 74.496 0 0 1-6.141 10.759 12.947 12.947 0 0 1-5.913 4.676 12.91 12.91 0 0 1-7.499.598c-8.387-1.805-16.687-3.168-20.552-.926a2.034 2.034 0 0 1-.248.122c-3.708 2.455-6.554 10.626-8.937 18.129a12.974 12.974 0 0 1-4.219 6.208 12.926 12.926 0 0 1-6.948 2.836 72.214 72.214 0 0 1-6.429.285zm-24.358-30.848c4.605 2.892 7.628 9.964 10.977 20.378a9 9 0 0 0 7.78 6.244c3.861.314 7.793.302 11.671-.038a8.989 8.989 0 0 0 7.715-6.264c2.789-8.781 5.934-17.595 11.003-20.545.114-.066.232-.12.353-.162 4.801-2.523 12.407-1.611 23.042.678 1.742.381 3.533.238 5.188-.412s3.068-1.767 4.086-3.229a70.36 70.36 0 0 0 5.798-10.159 9 9 0 0 0 .707-5.149 8.994 8.994 0 0 0-2.251-4.693c-6.186-6.818-12.22-13.962-12.22-19.834 0-.091.006-.181.018-.269.162-5.462 4.763-11.64 12.106-19.787 1.204-1.342 1.978-3.002 2.234-4.795s-.021-3.604-.802-5.238a70.112 70.112 0 0 0-5.802-9.98 8.947 8.947 0 0 0-4.088-3.186 8.91 8.91 0 0 0-5.17-.388c-8.984 1.967-18.175 3.64-23.251.698a2.038 2.038 0 0 1-.269-.186c-4.606-2.89-7.63-9.963-10.979-20.379-.543-1.705-1.563-3.192-2.951-4.305s-3.056-1.782-4.825-1.937a69.353 69.353 0 0 0-11.672.041 8.987 8.987 0 0 0-7.715 6.265c-2.79 8.782-5.936 17.596-11.003 20.544-.114.066-.232.12-.353.162-4.8 2.524-12.406 1.612-23.042-.677a8.92 8.92 0 0 0-5.188.412 8.952 8.952 0 0 0-4.087 3.23 70.442 70.442 0 0 0-5.798 10.159 9.008 9.008 0 0 0-.708 5.154 9.007 9.007 0 0 0 2.254 4.696c6.185 6.812 12.219 13.95 12.219 19.822 0 .091-.006.181-.018.269-.161 5.464-4.762 11.641-12.105 19.787a9.08 9.08 0 0 0-2.235 4.795 9.1 9.1 0 0 0 .802 5.238 70.274 70.274 0 0 0 5.802 9.981 8.952 8.952 0 0 0 9.257 3.576c8.985-1.967 18.175-3.639 23.25-.699.096.05.186.113.27.182zm24.412-15.814a27.118 27.118 0 0 1-15.15-4.61 27.238 27.238 0 0 1-10.04-12.273 27.33 27.33 0 0 1-1.551-15.796 27.286 27.286 0 0 1 7.46-14 27.15 27.15 0 0 1 13.961-7.486 27.102 27.102 0 0 1 15.756 1.557 27.185 27.185 0 0 1 12.235 10.073 27.315 27.315 0 0 1 4.593 15.19c-.001 7.303-2.837 14.168-7.985 19.332-5.149 5.165-11.996 8.011-19.279 8.013zm.012-50.694c-1.518 0-3.041.15-4.55.451a23.165 23.165 0 0 0-11.911 6.387c-3.266 3.276-5.468 7.41-6.369 11.955s-.443 9.21 1.325 13.492a23.25 23.25 0 0 0 8.57 10.476 23.13 23.13 0 0 0 12.922 3.933c6.212-.001 12.053-2.429 16.447-6.837 4.395-4.409 6.816-10.272 6.818-16.509a23.33 23.33 0 0 0-3.922-12.972 23.208 23.208 0 0 0-10.441-8.597 23.14 23.14 0 0 0-8.889-1.779z"/></g><path d="m179.808 128.344.014.027c0-5.206 5.429-11.903 11.597-18.744a11.14 11.14 0 0 0 1.751-12.236 71.993 71.993 0 0 0-5.965-10.262c-1.249-1.768-2.991-3.127-5.007-3.907s-4.216-.945-6.325-.475c-9.009 1.972-17.475 3.434-21.815.92h.041c-4.498-2.598-7.564-10.671-10.386-19.446-.659-2.069-1.912-3.897-3.604-5.254s-3.745-2.181-5.902-2.369a71.184 71.184 0 0 0-12.022.041c-2.151.202-4.195 1.036-5.876 2.398s-2.923 3.192-3.572 5.259c-2.797 8.806-5.762 16.89-10.1 19.414l.014-.041c-4.496 2.609-12.998 1.233-21.981-.701-2.117-.463-4.323-.287-6.341.506s-3.756 2.166-4.997 3.948a72.123 72.123 0 0 0-5.971 10.459 11.042 11.042 0 0 0 1.883 12.042c6.206 6.836 11.695 13.463 11.695 18.473l-.014-.027c0 5.208-5.429 11.904-11.595 18.744a11.131 11.131 0 0 0-1.752 12.236 72.088 72.088 0 0 0 5.965 10.262c1.249 1.768 2.991 3.128 5.007 3.908s4.216.945 6.326.476c9.008-1.972 17.475-3.434 21.813-.921h-.041c4.498 2.6 7.564 10.672 10.386 19.447a11.022 11.022 0 0 0 3.605 5.254 10.977 10.977 0 0 0 5.903 2.37c4.001.326 8.023.312 12.022-.038a10.955 10.955 0 0 0 5.876-2.399 11.014 11.014 0 0 0 3.572-5.259c2.797-8.808 5.762-16.891 10.1-19.416l-.014.041c4.498-2.609 12.998-1.232 21.983.702 2.117.462 4.323.286 6.34-.506a10.99 10.99 0 0 0 4.997-3.948 72.123 72.123 0 0 0 5.971-10.459 11.036 11.036 0 0 0-1.882-12.034c-6.209-6.842-11.699-13.469-11.699-18.485zm-51.436 25.373a25.204 25.204 0 0 1-14.036-4.271 25.322 25.322 0 0 1-9.305-11.375 25.43 25.43 0 0 1-1.438-14.644 25.368 25.368 0 0 1 6.914-12.977c3.533-3.545 8.035-5.959 12.936-6.937s9.981-.476 14.597 1.442a25.276 25.276 0 0 1 11.338 9.335 25.403 25.403 0 0 1-3.143 32.001 25.232 25.232 0 0 1-17.863 7.426z" fill="#fff"/><path d="M128.318 202.379c-1.987 0-3.971-.08-5.941-.241a12.952 12.952 0 0 1-6.99-2.803 12.986 12.986 0 0 1-4.26-6.208c-2.633-8.19-5.605-16.083-9.481-18.323a2.032 2.032 0 0 1-.197-.13c-3.949-2.026-12.454-.411-20.147 1.273a12.895 12.895 0 0 1-7.475-.564 12.942 12.942 0 0 1-5.919-4.619 74.377 74.377 0 0 1-6.138-10.556 13.091 13.091 0 0 1-1.152-7.528 13.083 13.083 0 0 1 3.221-6.903c5.758-6.388 11.084-12.916 11.084-17.408 0-.062.003-.125.009-.186-.207-4.838-7.323-12.676-11.172-16.915a12.985 12.985 0 0 1-3.249-6.772 13.008 13.008 0 0 1 1.028-7.448 74.542 74.542 0 0 1 6.142-10.759 12.95 12.95 0 0 1 5.914-4.676 12.903 12.903 0 0 1 7.499-.598c8.386 1.805 16.685 3.169 20.55.925a1.91 1.91 0 0 1 .249-.122c3.707-2.454 6.552-10.625 8.936-18.126a12.974 12.974 0 0 1 4.219-6.208 12.918 12.918 0 0 1 6.948-2.836 73.326 73.326 0 0 1 12.371-.043 12.93 12.93 0 0 1 6.991 2.802 12.97 12.97 0 0 1 4.258 6.207c2.633 8.19 5.606 16.083 9.481 18.321.069.04.134.083.197.13 3.946 2.03 12.455.413 20.149-1.271 2.495-.556 5.083-.362 7.475.563s4.438 2.522 5.919 4.618a74.106 74.106 0 0 1 6.138 10.556 13.088 13.088 0 0 1 1.152 7.527 13.089 13.089 0 0 1-3.22 6.903c-5.759 6.389-11.085 12.917-11.085 17.409 0 .064-.003.127-.009.189.21 4.84 7.325 12.682 11.173 16.925a12.987 12.987 0 0 1 3.246 6.768c.397 2.536.042 5.11-1.027 7.443a74.482 74.482 0 0 1-6.141 10.759 12.955 12.955 0 0 1-5.914 4.676 12.9 12.9 0 0 1-7.499.598c-8.388-1.805-16.686-3.169-20.552-.926-.08.047-.163.087-.247.122-3.709 2.455-6.554 10.627-8.937 18.129a12.973 12.973 0 0 1-4.219 6.207 12.923 12.923 0 0 1-6.948 2.836 72.996 72.996 0 0 1-6.43.283zM103.96 171.53c4.606 2.892 7.629 9.965 10.977 20.378a8.997 8.997 0 0 0 7.78 6.244 69.57 69.57 0 0 0 11.672-.038 8.992 8.992 0 0 0 7.714-6.265c2.789-8.781 5.934-17.595 11.003-20.545.114-.066.232-.12.354-.162 4.8-2.522 12.406-1.611 23.042.678a8.961 8.961 0 0 0 9.275-3.641 70.388 70.388 0 0 0 5.798-10.159 9.003 9.003 0 0 0 .707-5.15 8.994 8.994 0 0 0-2.251-4.693c-6.186-6.818-12.22-13.962-12.22-19.834 0-.091.006-.181.018-.269.162-5.462 4.763-11.64 12.106-19.787a9.082 9.082 0 0 0 2.234-4.795 9.11 9.11 0 0 0-.802-5.238 70.143 70.143 0 0 0-5.802-9.98 8.947 8.947 0 0 0-4.088-3.186 8.919 8.919 0 0 0-5.17-.388c-8.984 1.967-18.173 3.64-23.251.698a2.038 2.038 0 0 1-.269-.186c-4.606-2.89-7.63-9.963-10.979-20.379-.543-1.705-1.563-3.192-2.951-4.305s-3.056-1.782-4.825-1.937a69.353 69.353 0 0 0-11.672.041 8.987 8.987 0 0 0-7.715 6.265c-2.79 8.782-5.936 17.596-11.002 20.544-.114.066-.233.12-.354.162-4.801 2.523-12.406 1.612-23.04-.678a8.91 8.91 0 0 0-5.188.413 8.951 8.951 0 0 0-4.087 3.229 70.447 70.447 0 0 0-5.799 10.159c-.737 1.608-.983 3.394-.708 5.154s1.055 3.383 2.254 4.696c6.185 6.812 12.219 13.95 12.219 19.822 0 .089-.006.178-.018.264-.159 5.464-4.76 11.643-12.105 19.792a9.08 9.08 0 0 0-2.235 4.795 9.108 9.108 0 0 0 .802 5.238 70.172 70.172 0 0 0 5.801 9.981 8.952 8.952 0 0 0 9.257 3.576c8.984-1.967 18.174-3.64 23.25-.699.094.054.185.116.268.185zm24.412-15.813a27.118 27.118 0 0 1-15.15-4.61c-4.498-3.016-7.97-7.26-10.04-12.273s-2.606-10.475-1.551-15.796a27.277 27.277 0 0 1 7.459-14 27.154 27.154 0 0 1 13.961-7.486c5.309-1.058 10.757-.52 15.756 1.557s9.23 5.561 12.235 10.073 4.593 9.765 4.593 15.19c-.001 7.303-2.837 14.168-7.985 19.332-5.148 5.165-11.995 8.011-19.278 8.013zm.013-50.694c-1.518 0-3.041.15-4.551.451a23.173 23.173 0 0 0-11.911 6.387 23.292 23.292 0 0 0-6.369 11.954 23.354 23.354 0 0 0 1.324 13.492 23.257 23.257 0 0 0 8.57 10.477 23.13 23.13 0 0 0 12.922 3.933c6.212-.001 12.053-2.429 16.447-6.837 4.395-4.409 6.816-10.272 6.818-16.509a23.33 23.33 0 0 0-3.922-12.972 23.208 23.208 0 0 0-10.441-8.597 23.123 23.123 0 0 0-8.887-1.779z" fill="#531CB3"/></svg></g></svg>
